<?xml version="1.0" encoding="utf-8"?>
<!-- Generator: Adobe Illustrator 22.1.0, SVG Export Plug-In . SVG Version: 6.00 Build 0)  -->
<svg version="1.1" id="Layer_1" xmlns="http://www.w3.org/2000/svg" xmlns:xlink="http://www.w3.org/1999/xlink" x="0px" y="0px"
	 viewBox="0 0 200 200" style="enable-background:new  0 173.5 169.1;" xml:space="preserve">
<style type="text/css">
	.st0{fill:#F8AA97;}
</style>
<path class="st0" d="M1.2,30.6c-0.3,0.3-0.5,0.7-0.6,1.1c-0.2,0.1-0.3,0.2-0.4,0.4c-0.9,1.5,0.7,3.1,2.2,2.9
	c1.6-0.2,2.9-1.7,2.4-3.3C4.4,30.3,2.4,29.4,1.2,30.6z"/>
<path class="st0" d="M36.6,34.7c0.3,0,0.7-0.1,1-0.4c0.4-0.3,0.5-0.8,0.6-1.3c0.1-0.8-0.1-1.7-0.7-2.2c-0.6-0.5-1.3-0.6-1.9-0.4
	c-0.5,0-1,0.3-1.4,0.7c-0.5,0.7-0.6,1.6-0.1,2.3c0.5,0.7,1.4,1.2,2.3,1.2C36.4,34.7,36.5,34.7,36.6,34.7z"/>
<path class="st0" d="M71.8,33c0-0.7-0.3-1.4-0.9-1.8c-0.1-0.1-0.2-0.1-0.3-0.2c-0.1-0.2-0.3-0.4-0.4-0.5c-1.1-0.8-2.8-0.1-3.1,1.2
	c-0.4,1.4,0.6,2.6,1.9,3C70.1,35.1,71.7,34.5,71.8,33z"/>
<path class="st0" d="M1.2,0.6C0.9,0.9,0.7,1.2,0.7,1.6C0.5,1.7,0.4,1.9,0.2,2.1C-0.6,3.6,0.9,5.1,2.5,5C4,4.8,5.4,3.2,4.9,1.7
	C4.4,0.2,2.4-0.6,1.2,0.6z"/>
<path class="st0" d="M36.6,4.6c0.3,0,0.7-0.1,1-0.4c0.4-0.3,0.5-0.8,0.6-1.3c0.1-0.8-0.1-1.7-0.7-2.2c-0.6-0.5-1.3-0.6-1.9-0.4
	c-0.5,0-1,0.3-1.4,0.7c-0.5,0.7-0.6,1.6-0.1,2.3c0.5,0.7,1.4,1.2,2.3,1.2C36.4,4.7,36.5,4.6,36.6,4.6z"/>
<path class="st0" d="M71.8,3c0-0.7-0.3-1.4-0.9-1.8C70.7,1.1,70.6,1,70.5,1c-0.1-0.2-0.3-0.4-0.4-0.5c-1.1-0.8-2.8-0.1-3.1,1.2
	c-0.4,1.4,0.6,2.6,1.9,3C70.1,5.1,71.7,4.4,71.8,3z"/>
<path class="st0" d="M68.7,62.9c-0.1,0-0.1,0-0.2,0.1c-0.4,0.1-0.9,0.4-1.1,0.8c-0.3,0.5-0.4,1.1-0.2,1.7c0.3,1.2,1.4,1.8,2.6,1.6
	c1.1-0.3,1.9-1.4,1.6-2.5C71.2,63.3,69.8,62.5,68.7,62.9z"/>
<path class="st0" d="M36.7,63.2c-0.5-0.1-1-0.2-1.4-0.1c-0.5,0.1-0.9,0.5-1.1,0.9c-0.6,1.1,0.2,2.3,1.3,2.6c0.9,0.3,2.2,0.1,2.5-1
	c0.1-0.5,0-1-0.3-1.3C37.5,63.8,37.2,63.3,36.7,63.2z"/>
<path class="st0" d="M3.4,63.4C3.3,63.1,3,63,2.8,62.9c-0.6-0.1-1.2,0-1.6,0.4c-0.3,0.3-0.5,0.7-0.6,1.1c-0.2,1,0.3,2,1.3,2.4
	c0.8,0.3,1.8,0,2.3-0.8c0.5-0.7,0.4-1.8-0.3-2.4C3.7,63.5,3.6,63.4,3.4,63.4z"/>
<path class="st0" d="M1.2,97.2c-0.3,0.3-0.5,0.7-0.6,1.1c-0.2,0.1-0.3,0.2-0.4,0.4c-0.9,1.5,0.7,3.1,2.2,2.9
	c1.6-0.2,2.9-1.7,2.4-3.3C4.4,96.8,2.4,96,1.2,97.2z"/>
<path class="st0" d="M36.6,101.2c0.3,0,0.7-0.1,1-0.4c0.4-0.3,0.5-0.8,0.6-1.3c0.1-0.8-0.1-1.7-0.7-2.2c-0.6-0.5-1.3-0.6-1.9-0.4
	c-0.5,0-1,0.3-1.4,0.7c-0.5,0.7-0.6,1.6-0.1,2.3c0.5,0.7,1.4,1.2,2.3,1.2C36.4,101.3,36.5,101.2,36.6,101.2z"/>
<path class="st0" d="M71.8,99.6c0-0.7-0.3-1.4-0.9-1.8c-0.1-0.1-0.2-0.1-0.3-0.2c-0.1-0.2-0.3-0.4-0.4-0.5c-1.1-0.8-2.8-0.1-3.1,1.2
	c-0.4,1.4,0.6,2.6,1.9,3C70.1,101.7,71.7,101.1,71.8,99.6z"/>
<path class="st0" d="M101.5,30.6c-0.3,0.3-0.5,0.7-0.6,1.1c-0.2,0.1-0.3,0.2-0.4,0.4c-0.9,1.5,0.7,3.1,2.2,2.9
	c1.6-0.2,2.9-1.7,2.4-3.3C104.6,30.3,102.7,29.4,101.5,30.6z"/>
<path class="st0" d="M136.8,34.7c0.3,0,0.7-0.1,1-0.4c0.4-0.3,0.5-0.8,0.6-1.3c0.1-0.8-0.1-1.7-0.7-2.2c-0.6-0.5-1.3-0.6-1.9-0.4
	c-0.5,0-1,0.3-1.4,0.7c-0.5,0.7-0.6,1.6-0.1,2.3c0.5,0.7,1.4,1.2,2.3,1.2C136.6,34.7,136.7,34.7,136.8,34.7z"/>
<path class="st0" d="M172,33c0-0.7-0.3-1.4-0.9-1.8c-0.1-0.1-0.2-0.1-0.3-0.2c-0.1-0.2-0.3-0.4-0.4-0.5c-1.1-0.8-2.8-0.1-3.1,1.2
	c-0.4,1.4,0.6,2.6,1.9,3C170.3,35.1,171.9,34.5,172,33z"/>
<path class="st0" d="M101.5,0.6c-0.3,0.3-0.5,0.7-0.6,1.1c-0.2,0.1-0.3,0.2-0.4,0.4c-0.9,1.5,0.7,3.1,2.2,2.9
	c1.6-0.2,2.9-1.7,2.4-3.3C104.6,0.2,102.7-0.6,101.5,0.6z"/>
<path class="st0" d="M136.8,4.6c0.3,0,0.7-0.1,1-0.4c0.4-0.3,0.5-0.8,0.6-1.3c0.1-0.8-0.1-1.7-0.7-2.2c-0.6-0.5-1.3-0.6-1.9-0.4
	c-0.5,0-1,0.3-1.4,0.7c-0.5,0.7-0.6,1.6-0.1,2.3c0.5,0.7,1.4,1.2,2.3,1.2C136.6,4.7,136.7,4.6,136.8,4.6z"/>
<path class="st0" d="M172,3c0-0.7-0.3-1.4-0.9-1.8C171,1.1,170.9,1,170.8,1c-0.1-0.2-0.3-0.4-0.4-0.5c-1.1-0.8-2.8-0.1-3.1,1.2
	c-0.4,1.4,0.6,2.6,1.9,3C170.3,5.1,171.9,4.4,172,3z"/>
<path class="st0" d="M169,62.9c-0.1,0-0.1,0-0.2,0.1c-0.4,0.1-0.9,0.4-1.1,0.8c-0.3,0.5-0.4,1.1-0.2,1.7c0.3,1.2,1.4,1.8,2.6,1.6
	c1.1-0.3,1.9-1.4,1.6-2.5C171.4,63.3,170.1,62.5,169,62.9z"/>
<path class="st0" d="M136.9,63.2c-0.5-0.1-1-0.2-1.4-0.1c-0.5,0.1-0.9,0.5-1.1,0.9c-0.6,1.1,0.2,2.3,1.3,2.6c0.9,0.3,2.2,0.1,2.5-1
	c0.1-0.5,0-1-0.3-1.3C137.8,63.8,137.4,63.3,136.9,63.2z"/>
<path class="st0" d="M103.7,63.4c-0.2-0.2-0.4-0.4-0.7-0.5c-0.6-0.1-1.2,0-1.6,0.4c-0.3,0.3-0.5,0.7-0.6,1.1c-0.2,1,0.3,2,1.3,2.4
	c0.8,0.3,1.8,0,2.3-0.8c0.5-0.7,0.4-1.8-0.3-2.4C104,63.5,103.8,63.4,103.7,63.4z"/>
<path class="st0" d="M101.5,97.2c-0.3,0.3-0.5,0.7-0.6,1.1c-0.2,0.1-0.3,0.2-0.4,0.4c-0.9,1.5,0.7,3.1,2.2,2.9
	c1.6-0.2,2.9-1.7,2.4-3.3C104.6,96.8,102.7,96,101.5,97.2z"/>
<path class="st0" d="M136.8,101.2c0.3,0,0.7-0.1,1-0.4c0.4-0.3,0.5-0.8,0.6-1.3c0.1-0.8-0.1-1.7-0.7-2.2c-0.6-0.5-1.3-0.6-1.9-0.4
	c-0.5,0-1,0.3-1.4,0.7c-0.5,0.7-0.6,1.6-0.1,2.3c0.5,0.7,1.4,1.2,2.3,1.2C136.6,101.3,136.7,101.2,136.8,101.2z"/>
<path class="st0" d="M172,99.6c0-0.7-0.3-1.4-0.9-1.8c-0.1-0.1-0.2-0.1-0.3-0.2c-0.1-0.2-0.3-0.4-0.4-0.5c-1.1-0.8-2.8-0.1-3.1,1.2
	c-0.4,1.4,0.6,2.6,1.9,3C170.3,101.7,171.9,101.1,172,99.6z"/>
<path class="st0" d="M36.6,168.7c0.3,0,0.7-0.1,1-0.4c0.4-0.3,0.5-0.8,0.6-1.3c0.1-0.8-0.1-1.7-0.7-2.2c-0.6-0.5-1.3-0.6-1.9-0.4
	c-0.5,0-1,0.3-1.4,0.7c-0.5,0.7-0.6,1.6-0.1,2.3c0.5,0.7,1.4,1.2,2.3,1.2C36.4,168.8,36.5,168.8,36.6,168.7z"/>
<path class="st0" d="M71.8,167.1c0-0.7-0.3-1.4-0.9-1.8c-0.1-0.1-0.2-0.1-0.3-0.2c-0.1-0.2-0.3-0.4-0.4-0.5
	c-1.1-0.8-2.8-0.1-3.1,1.2c-0.4,1.4,0.6,2.6,1.9,3C70.1,169.2,71.7,168.6,71.8,167.1z"/>
<path class="st0" d="M68.7,129.4c-0.1,0-0.1,0-0.2,0.1c-0.4,0.1-0.9,0.4-1.1,0.8c-0.3,0.5-0.4,1.1-0.2,1.7c0.3,1.2,1.4,1.8,2.6,1.6
	c1.1-0.3,1.9-1.4,1.6-2.5C71.2,129.8,69.8,129.1,68.7,129.4z"/>
<path class="st0" d="M36.7,129.7c-0.5-0.1-1-0.2-1.4-0.1c-0.5,0.1-0.9,0.5-1.1,0.9c-0.6,1.1,0.2,2.3,1.3,2.6c0.9,0.3,2.2,0.1,2.5-1
	c0.1-0.5,0-1-0.3-1.3C37.5,130.3,37.2,129.8,36.7,129.7z"/>
<path class="st0" d="M3.4,129.9c-0.2-0.2-0.4-0.4-0.7-0.5c-0.6-0.1-1.2,0-1.6,0.4c-0.3,0.3-0.5,0.7-0.6,1.1c-0.2,1,0.3,2,1.3,2.4
	c0.8,0.3,1.8,0,2.3-0.8c0.5-0.7,0.4-1.8-0.3-2.4C3.7,130.1,3.6,130,3.4,129.9z"/>
<path class="st0" d="M103.9,129.9c-0.4-0.3-1-0.2-1.4,0.1c-0.2,0-0.3,0-0.5,0c-0.5,0.1-1,0.5-1.1,1c-0.3,1,0.6,1.9,1.5,2
	c0.8,0.2,1.7-0.1,2.1-0.9C104.9,131.4,104.7,130.4,103.9,129.9z"/>
<path class="st0" d="M136.7,129.7C136.7,129.6,136.7,129.6,136.7,129.7c-0.6-0.4-1.3-0.4-1.8,0c-0.6,0.3-0.8,1-0.9,1.6
	c-0.1,1,0.6,2.1,1.7,2.3c1.1,0.1,2.3-0.7,2.4-1.8C138.3,130.7,137.6,129.9,136.7,129.7z M136,132C136.1,132,136.1,132.1,136,132
	C136.1,132.1,136.1,132,136,132z"/>
<path class="st0" d="M1.2,164.7c-0.3,0.3-0.5,0.7-0.6,1.1c-0.2,0.1-0.3,0.2-0.4,0.4c-0.9,1.5,0.7,3.1,2.2,2.9
	c1.6-0.2,2.9-1.7,2.4-3.3C4.4,164.3,2.4,163.5,1.2,164.7z"/>
<path class="st0" d="M103.8,168.5c1-0.5,1.3-1.8,0.7-2.7c0-0.3-0.1-0.6-0.4-0.8c-0.7-0.6-1.8-0.8-2.7-0.2c-0.9,0.6-1.2,1.9-0.6,2.9
	C101.5,168.7,102.8,169.1,103.8,168.5z"/>
<path class="st0" d="M138.2,167c0.2-0.6,0-1.3-0.5-1.7c-0.3-0.2-0.5-0.3-0.8-0.3c0,0-0.1,0-0.1,0c-0.3-0.2-0.7-0.3-1.1-0.2
	c-0.1,0-0.2,0.1-0.3,0.1c-0.1,0-0.1,0-0.2,0c-0.7,0.2-1.1,0.8-1.2,1.5c-0.1,1.1,0.9,2.1,2,2.2C137,168.6,138,167.9,138.2,167z"/>
<path class="st0" d="M173.5,167.1c0-0.7-0.3-1.4-0.9-1.8c-0.1-0.1-0.2-0.1-0.3-0.2c-0.1-0.2-0.3-0.4-0.4-0.5
	c-1.1-0.8-2.8-0.1-3.1,1.2c-0.4,1.4,0.6,2.6,1.9,3C171.9,169.2,173.5,168.6,173.5,167.1z"/>
<path class="st0" d="M171.9,129.9c-0.2-0.2-0.4-0.4-0.7-0.5c-0.6-0.1-1.2,0-1.6,0.4c-0.3,0.3-0.5,0.7-0.6,1.1c-0.2,1,0.3,2,1.3,2.4
	c0.8,0.3,1.8,0,2.3-0.8c0.5-0.7,0.4-1.8-0.3-2.4C172.2,130.1,172,130,171.9,129.9z"/>
</svg>
