<svg data-name="Layer 1" xmlns="http://www.w3.org/2000/svg" viewBox="0 0 187.8 171.58"><path d="M7.87 4.86A388.55 388.55 0 0 0 0 86.91c.16 14 1.09 28 .88 42-.21 14.87.31 27.84 2.72 42.53 58.17-2.3 115.12 4.57 172.17-5.95a5.11 5.11 0 0 0 2.32-.85 3.61 3.61 0 0 0 1-2c11.7-45.16 9.06-95.81 6.36-141.81-.45-7.65-.69-20.49-.69-20.49s-32.93-.08-45-.3c-28.48-.5-57 3.44-85.48 3.82-4.07.05-46.15-.24-46.41 1z" fill="#f8aa97"/><text transform="translate(27.81 72.15)" fill="#fff" font-size="59" font-family="Newzald-Bold,Newzald" font-weight="700"><tspan letter-spacing="-.01em">b<tspan x="31.64" y="0" letter-spacing="0">l</tspan><tspan x="47.79" y="0" letter-spacing=".01em">o</tspan><tspan x="78.66" y="0" letter-spacing="0">c</tspan><tspan x="104.4" y="0" letter-spacing=".02em">k</tspan></tspan><tspan x=".42" y="44" letter-spacing="-.02em">p</tspan><tspan x="31.72" y="44" letter-spacing="0">a</tspan><tspan x="59.62" y="44" letter-spacing=".02em">r</tspan><tspan x="85.56" y="44" letter-spacing=".02em">t</tspan><tspan x="106.82" y="44">y</tspan></text><text transform="translate(57.52 147.07)" font-size="11" font-family="BasicSans-Black,Basic Sans" letter-spacing=".2em" fill="#fff">EVENT C<tspan x="58.13" y="0" letter-spacing=".1em">O</tspan><tspan x="67.13" y="0">.</tspan></text></svg>